<svg aria-hidden="true" style="width:0;height:0;position:absolute;overflow:hidden" xmlns="http://www.w3.org/2000/svg"><defs><symbol id="icon-align-left" viewBox="0 0 32 32"><path stroke-linejoin="round" stroke-linecap="round" stroke-width="2.286" d="M22.667 13.333H4M28 8H4m24 10.667H4M22.667 24H4"/></symbol><symbol id="icon-angle-small-left" viewBox="0 0 32 32"><path d="M14.133 16.947a1.327 1.327 0 0 1-.289-1.468l-.003.009c.071-.169.17-.313.292-.434l6.12-6.107a1.334 1.334 0 0 0-.94-2.281c-.367 0-.699.148-.94.388l-6.12 6.12c-.723.724-1.17 1.723-1.17 2.827s.447 2.103 1.17 2.827l6.12 6.12c.24.238.569.385.933.387h.008c.366 0 .698-.148.938-.387a1.33 1.33 0 0 0 .001-1.894l-6.12-6.107z"/></symbol><symbol id="icon-arrow-narrow-right" viewBox="0 0 32 32"><path stroke-linejoin="round" stroke-linecap="round" stroke-width="3.2" d="M5.333 16h21.333m.001 0-8-8m8 8-8 8"/></symbol><symbol id="icon-caret-down" viewBox="0 0 28 32"><path d="M5.898 12h16.513l-7.423 8.391c-.221.25-.521.39-.834.39s-.613-.14-.834-.39L5.898 12z"/></symbol><symbol id="icon-cart" viewBox="0 0 32 32"><path d="M25.333 9.333h-4V8a5.333 5.333 0 0 0-10.666-.002v1.336h-4c-.736 0-1.333.597-1.333 1.333v14.667a4 4 0 0 0 4 4h13.333a3.995 3.995 0 0 0 2.828-1.172 3.988 3.988 0 0 0 1.172-2.828V10.667c0-.736-.597-1.333-1.333-1.333zM13.333 8a2.667 2.667 0 1 1 5.334 0v1.333h-5.333V8zM24 25.333c0 .736-.597 1.333-1.333 1.333H9.334a1.333 1.333 0 0 1-1.333-1.333V12h2.667v1.333a1.333 1.333 0 0 0 2.666 0V12h5.333v1.333a1.333 1.333 0 0 0 2.666 0V11.999H24v13.333z"/></symbol><symbol id="icon-lock-02" viewBox="0 0 32 32"><path stroke-linejoin="round" stroke-linecap="round" stroke-width="2.286" d="M22.667 14.667v-4a6.667 6.667 0 0 0-13.334 0v4M10.4 28h11.2c2.24 0 3.36 0 4.216-.436a4.035 4.035 0 0 0 1.738-1.726l.011-.022c.436-.856.436-1.976.436-4.216v-.533c0-2.24 0-3.36-.436-4.216a4.035 4.035 0 0 0-1.726-1.738l-.022-.011c-.856-.436-1.976-.436-4.216-.436h-11.2c-2.24 0-3.36 0-4.216.436a4.027 4.027 0 0 0-1.737 1.726l-.011.022c-.436.856-.436 1.976-.436 4.216v.533c0 2.24 0 3.36.436 4.216a4.035 4.035 0 0 0 1.726 1.738l.022.011C7.041 28 8.161 28 10.401 28z"/></symbol><symbol id="icon-logo" viewBox="0 0 32 32"><path fill="#f6f6f6" style="fill:var(--color1,#f6f6f6)" d="m0 0 16.343 16.171L32 32V0H0z"/><path fill="#f6f6f6" style="fill:var(--color1,#f6f6f6)" d="M4.457 4.229 16.4 16.058l11.257 11.486h-23.2V4.23z"/><path fill="#4f2ee8" style="fill:var(--color2,#4f2ee8)" d="M27.733 27.618 15.79 15.789 4.533 4.303h23.2v23.314z"/><path fill="#4f2ee8" style="fill:var(--color2,#4f2ee8)" d="m9.257 9.029 13.6 13.6h-13.6v-13.6z"/><path fill="#f6f6f6" style="fill:var(--color1,#f6f6f6)" d="m9.257 9.029 13.6 13.6v-13.6h-13.6z"/></symbol><symbol id="icon-mail-02" viewBox="0 0 32 32"><path stroke-linejoin="round" stroke-linecap="round" stroke-width="2.286" d="m28.666 24-8.857-8m-7.619 0-8.857 8M2.667 9.333l10.886 7.621c.882.617 1.322.926 1.802 1.045a2.682 2.682 0 0 0 1.308-.004l-.018.004c.479-.12.92-.428 1.802-1.045l10.887-7.621M9.067 26.667h13.867c2.24 0 3.36 0 4.216-.436a4.035 4.035 0 0 0 1.738-1.726l.011-.022c.436-.856.436-1.976.436-4.216v-8.533c0-2.24 0-3.36-.436-4.216a4.027 4.027 0 0 0-1.726-1.737l-.022-.011c-.856-.436-1.976-.436-4.216-.436H9.068c-2.24 0-3.36 0-4.216.436a4.027 4.027 0 0 0-1.737 1.726l-.01.022c-.436.856-.436 1.976-.436 4.216v8.533c0 2.24 0 3.36.436 4.216a4.035 4.035 0 0 0 1.726 1.738l.022.011c.856.436 1.976.436 4.216.436z"/></symbol><symbol id="icon-plug_small" viewBox="0 0 32 32"><path d="M31.229 9.921a15.221 15.221 0 0 0-2.138-.91v17.947A14.622 14.622 0 0 0 24 26.033c-2.764 0-5.498.806-8 2.357V10.339c-2.356-1.387-5.076-2.208-8-2.208-2.604 0-5.062.656-7.229 1.79-.48.239-.771.761-.771 1.313v18.021c0 .865.684 1.477 1.455 1.477.233 0 .465-.06.698-.179 1.76-.94 3.738-1.537 5.847-1.537 3.011 0 5.789 1.223 8 2.984 2.211-1.76 4.989-2.984 8-2.984 2.109 0 4.087.597 5.847 1.552.233.119.465.179.698.179.756 0 1.455-.612 1.455-1.477V11.234c0-.552-.291-1.074-.771-1.313zM13.091 26.958c-1.658-.612-3.36-.925-5.091-.925s-3.433.313-5.091.925V12.174a12.672 12.672 0 0 1 10.182.015v14.769zM26.182 2.909l-7.273 7.459V24.54l7.273-6.713V2.909z"/></symbol><symbol id="icon-sprt-tryzub" viewBox="0 0 20 32"><path d="M9.005 30.888a8.636 8.636 0 0 1-3.414-5.351H0V2.42c2.991 1.443 5.153 4.599 5.388 7.876l.846 6.493-.407-.045c-.893 0-1.676.812-1.676 1.608 0 .752.595 1.383 1.378 1.548l1.018.226c1.676-3.051 2.631-6.042 2.631-8.973 0-2.645-.36-5.291-.423-7.996 0-1.202.486-2.3 1.253-3.156.783.857 1.253 1.954 1.253 3.156 0 2.705-.423 5.351-.423 7.996 0 2.931.955 5.922 2.631 8.973l1.018-.226c.783-.165 1.378-.812 1.378-1.548 0-.812-.783-1.608-1.676-1.608l-.423.06.846-6.493c.423-3.277 2.396-6.448 5.388-7.876v23.117h-5.576c-.423 2.179-1.613 4.148-3.414 5.351-.423.286-.783.631-1.018 1.097-.219-.466-.579-.812-.987-1.112zM2.647 17.556c.235-.857.893-1.608 1.738-2.074l-.658-5.351a8.288 8.288 0 0 0-2.036-4.374v11.784h.955v.015zm2.819 6.373c0-.812.125-1.548.298-2.3l-.783-.18c-1.143-.346-2.036-1.203-2.334-2.3h-.955v4.78h3.774zm3.712 0c0-.977-.783-1.834-1.801-1.954-.172.631-.298 1.263-.298 1.954h2.099zm0 1.623H7.314c.298 1.263.955 2.42 1.864 3.397v-3.397zm2.631-5.005c-.72-1.262-1.378-2.585-1.801-3.968-.423 1.383-1.081 2.706-1.801 3.968.72.165 1.316.631 1.801 1.157.486-.526 1.081-.992 1.801-1.157zm1.143 3.382c0-.691-.125-1.323-.297-1.954-1.018.12-1.801.977-1.801 1.954h2.099zm-.235 1.623h-1.864v3.397c.908-.992 1.566-2.134 1.864-3.397zm5.623-1.623v-4.78h-.955c-.298 1.097-1.206 1.954-2.334 2.3l-.783.18c.172.752.298 1.488.298 2.3h3.774zm0-6.373V5.757c-1.081 1.202-1.864 2.706-2.036 4.374l-.658 5.351c.846.466 1.504 1.203 1.739 2.074h.955z"/></symbol><symbol id="icon-trash-03" viewBox="0 0 32 32"><path fill="none" stroke="#fff" style="stroke:var(--color1,#fff)" stroke-linejoin="round" stroke-linecap="round" stroke-width="2" d="M12 4h8M4 8h24m-2.667 0-.935 14.026c-.14 2.104-.21 3.156-.665 3.954a4.007 4.007 0 0 1-1.731 1.62c-.826.4-1.881.4-3.99.4h-4.025c-2.109 0-3.163 0-3.99-.4a4.001 4.001 0 0 1-1.731-1.62c-.455-.798-.525-1.85-.665-3.954L6.666 8m6.667 6v6.667M18.667 14v6.667"/></symbol><symbol id="icon-user" viewBox="0 0 32 32"><path d="M5.333 29.333c0-5.891 4.776-10.666 10.667-10.667 5.891 0 10.666 4.776 10.666 10.666H5.333zm10.667-12c-4.42 0-8-3.58-8-8s3.58-8 8-8 8 3.58 8 8-3.58 8-8 8z"/></symbol><symbol id="icon-x-close" viewBox="0 0 32 32"><path stroke-linejoin="round" stroke-linecap="round" stroke-width="3.429" d="M24 8 8 24M8 8l16 16"/></symbol><symbol id="icon-scroll-up" viewBox="0 0 32 32"><path d="M4.5 19.6 15.7 8.367c.133-.133.278-.228.433-.283s.322-.084.5-.084.345.028.5.084.3.149.433.283L28.799 19.6c.311.311.467.7.467 1.167s-.167.867-.5 1.2c-.333.333-.722.5-1.167.5s-.833-.167-1.167-.5l-9.8-9.8-9.8 9.8c-.311.311-.694.467-1.149.467s-.851-.167-1.184-.5-.5-.722-.5-1.167c0-.444.167-.833.5-1.167z"/></symbol></defs></svg>